<svg width="180" height="216" viewBox="0 0 180 216" fill="none" xmlns="http://www.w3.org/2000/svg">
<g clip-path="url(#clip0_peek_logo)">
<path d="M159.22 0H41.3757C35.7841 0 30.6999 2.214 26.9649 5.8212L26.3604 6.426L6.30405 26.4816C2.42879 30.2616 0 35.5428 0 41.3964V159.278C0 170.759 9.30495 180.068 20.7796 180.068H30.797V211.831C30.797 215.536 35.266 217.393 37.8891 214.769L72.5613 180.068H138.624C144.356 180.068 149.548 177.736 153.305 173.988L173.556 153.727L173.793 153.49C177.614 149.731 180 144.482 180 138.672V20.79C180 9.3096 170.695 0 159.22 0ZM170.296 138.672C170.296 141.664 169.119 144.482 167.003 146.567L166.96 146.599L166.798 146.761C164.758 148.662 162.135 149.731 159.361 149.753H41.3757C35.266 149.753 30.2897 144.774 30.2897 138.661V20.6496C30.322 17.874 31.3799 15.2496 33.3121 13.1976L33.7547 12.7548C35.8165 10.7892 38.5151 9.7092 41.3757 9.7092H159.22C165.33 9.7092 170.306 14.688 170.306 20.8008V138.683L170.296 138.672Z" fill="black"/>
<path d="M170.296 20.79V138.672C170.296 141.664 169.119 144.482 167.004 146.567L166.961 146.599L166.799 146.761C164.758 148.662 162.135 149.731 159.361 149.753H41.3761C35.2664 149.753 30.29 144.774 30.29 138.661V20.6496C30.3224 17.874 31.3803 15.2496 33.3125 13.1976L33.7551 12.7548C35.8169 10.7892 38.5155 9.70923 41.3761 9.70923H159.221C165.331 9.70923 170.307 14.688 170.307 20.8008L170.296 20.79Z" fill="white"/>
<path d="M173.793 153.49L173.556 153.727" stroke="black" stroke-width="1.28" stroke-miterlimit="10"/>
<path d="M153.305 173.988L153.132 174.172" stroke="black" stroke-width="1.28" stroke-miterlimit="10"/>
<path d="M95.9966 67.1005H86.2059C84.8889 67.1005 83.7231 66.1825 83.4964 64.8865C82.4385 58.8385 77.16 54.2269 70.8236 54.2269C64.4871 54.2269 59.187 58.8385 58.1291 64.8865C57.9024 66.1825 56.7366 67.1005 55.4197 67.1005H42.7036C42.7036 51.5917 55.3225 38.9773 70.8236 38.9773C85.2991 38.9773 97.2595 49.9933 98.7708 64.0873C98.9435 65.7073 97.6266 67.1005 96.0074 67.1005H95.9966Z" fill="black"/>
<path d="M163.031 42.6599V69.2819C163.031 103.237 135.267 131.749 101.329 131.339C74.7741 131.015 51.7276 113.713 43.9231 88.5923C43.3726 86.8103 44.7219 85.0067 46.5786 85.0067H56.8226C57.9885 85.0067 59.0031 85.7519 59.4241 86.8427C66.052 104.155 82.6002 115.873 101.512 116.089C127.139 116.392 147.778 94.9643 147.778 69.3143V64.8755C143.913 66.8735 139.531 68.0075 134.9 68.0075C120.414 68.0075 108.464 56.9807 106.953 42.8867C106.78 41.2667 108.097 39.8735 109.716 39.8735H119.507C120.824 39.8735 121.99 40.7915 122.216 42.0875C123.274 48.1463 128.553 52.7579 134.889 52.7579C141.226 52.7579 146.526 48.1463 147.584 42.0875C147.81 40.7915 148.976 39.8735 150.293 39.8735H160.246C161.779 39.8735 163.02 41.1155 163.02 42.6491L163.031 42.6599Z" fill="black"/>
</g>
<defs>
<clipPath id="clip0_peek_logo">
<rect width="180" height="216" fill="white"/>
</clipPath>
</defs>
</svg>
